Coordinates
version=1
nRows=17
nColumns=24
inDegrees=yes

Units are S.I. units (second, meters, Newtons, ...)
Angles are in degrees.

endheader
time	pelvis_tilt	pelvis_list	pelvis_rotation	pelvis_tx	pelvis_ty	pelvis_tz	hip_flexion_r	hip_adduction_r	hip_rotation_r	knee_angle_r	ankle_angle_r	subtalar_angle_r	mtp_angle_r	hip_flexion_l	hip_adduction_l	hip_rotation_l	knee_angle_l	ankle_angle_l	subtalar_angle_l	mtp_angle_l	lumbar_extension	lumbar_bending	lumbar_rotation
      3.07500000	     -6.70808585	     -6.40244937	     11.31373756	     -2.00948270	     -0.05125886	      0.51459117	     35.11281863	      2.06980662	     -1.13743137	    -12.45412550	      0.22131495	      6.72175062	      0.10800345	     -9.10860729	     -5.41563835	     12.35582601	    -21.52202514	     10.22757038	     33.21590617	     17.69785523	      3.45731988	      6.12043753	    -14.91454556
      3.08000000	     -6.68107655	     -6.72185256	     11.39770754	     -2.00052110	     -0.05240224	      0.51513784	     35.18001623	      2.38954074	     -1.52492854	    -13.24660434	     -0.47428596	      6.81776384	      0.94469696	     -9.10018035	     -5.97995523	     11.68344653	    -22.36432715	      9.48328801	     34.16808630	     18.27208689	      3.63906698	      6.46233000	    -14.94722728
      3.08500000	     -6.65522217	     -7.03482421	     11.44229178	     -1.99162010	     -0.05347625	      0.51564515	     35.23101618	      2.72156639	     -1.83493555	    -13.97084047	     -1.62916638	      6.68498629	      2.59469276	     -9.05739322	     -6.51328994	     11.03274074	    -23.22787244	      8.48862542	     34.90740979	     19.12110078	      3.80431075	      6.82415391	    -14.95929155
      3.09000000	     -6.66667252	     -7.37396235	     11.42375977	     -1.98269385	     -0.05455915	      0.51633134	     35.37259863	      3.11684127	     -2.20331503	    -14.88405541	     -2.32692985	      6.89978233	      2.82995789	     -8.90807809	     -7.09528932	     10.20585327	    -24.23969527	      7.60542832	     35.87371286	     19.45754072	      4.01082867	      7.19876912	    -14.84630505
      3.09500000	     -6.66276253	     -7.67995514	     11.44827324	     -1.97401191	     -0.05550074	      0.51705482	     35.46282377	      3.48840996	     -2.38024089	    -15.66974485	     -3.58080094	      6.57323437	      3.86999104	     -8.67336452	     -7.66897962	      9.37576712	    -25.30225392	      6.38356191	     36.85792900	     20.45696835	      4.14969375	      7.52948258	    -14.86181469
      3.10000000	     -6.67521544	     -8.00434699	     11.39540514	     -1.96539070	     -0.05643237	      0.51784517	     35.63004987	      3.89931881	     -2.68854957	    -16.60925631	     -4.42710396	      6.73576183	      4.09658448	     -8.36032245	     -8.25892823	      8.45823561	    -26.51578184	      5.24271092	     37.84898987	     20.87475201	      4.28563591	      7.89687569	    -14.71365867
      3.10500000	     -6.72369788	     -8.36026902	     11.35399513	     -1.95674509	     -0.05722861	      0.51866826	     35.78063228	      4.37198857	     -2.75791643	    -17.40999861	     -5.65333590	      6.30008008	      4.64931166	     -7.96340297	     -8.88580292	      7.61342303	    -27.68209301	      3.64088888	     38.66618211	     21.93766932	      4.47707559	      8.28368342	    -14.61391426
      3.11000000	     -6.77012139	     -8.71914336	     11.30020725	     -1.94822874	     -0.05799405	      0.51954025	     35.97831005	      4.83886659	     -2.97850987	    -18.32501036	     -6.49209565	      6.27167566	      4.75623739	     -7.46961460	     -9.54400206	      6.70212376	    -29.02554550	      2.11690645	     39.59248237	     22.45933423	      4.63726740	      8.67039499	    -14.48065630
      3.11500000	     -6.86729407	     -9.13011321	     11.23259681	     -1.93972089	     -0.05870151	      0.52044754	     36.21511534	      5.38356050	     -3.05857640	    -19.19450845	     -7.39470196	      5.95246220	      4.74606790	     -6.86427137	    -10.25219012	      5.86199734	    -30.38412955	      0.31851131	     40.36149012	     23.22726265	      4.85993439	      9.10513844	    -14.35790482
      3.12000000	     -6.95701004	     -9.54982818	     11.15011451	     -1.93124794	     -0.05926694	      0.52130191	     36.42196189	      5.96960835	     -3.01963769	    -20.02865797	     -8.25408901	      5.47866756	      4.61222018	     -6.24269916	    -10.93984449	      5.17457977	    -31.69250364	     -1.88292128	     40.79383929	     24.37754234	      5.06365377	      9.56449431	    -14.21289208
      3.12500000	     -7.07847200	    -10.00763149	     11.09212055	     -1.92277425	     -0.05982832	      0.52216862	     36.67476718	      6.56966174	     -3.08617240	    -20.89333826	     -8.82809372	      5.13628708	      4.34946277	     -5.49598712	    -11.69163814	      4.51959177	    -33.11262889	     -4.09471779	     41.28218279	     25.17256393	      5.31387457	     10.04467402	    -14.10861633
      3.13000000	     -7.24271707	    -10.51928766	     11.04077900	     -1.91415659	     -0.06037674	      0.52303278	     36.95305705	      7.22044920	     -3.17956155	    -21.73241357	     -9.20153480	      4.73126193	      4.04250722	     -4.65321109	    -12.50037062	      3.96116974	    -34.57052652	     -6.40134413	     41.70249735	     25.72420390	      5.65409896	     10.56020536	    -14.02693633
      3.13500000	     -7.36803004	    -10.97429779	     10.96620906	     -1.90562875	     -0.06076194	      0.52382925	     37.16374241	      7.86364037	     -3.12718810	    -22.57698507	     -9.36091037	      4.29262120	      3.44564205	     -3.84916280	    -13.20385622	      3.54531216	    -35.93285853	     -9.15640897	     41.70773157	     26.76901891	      5.91182456	     11.04094288	    -13.89139886
      3.14000000	     -7.56851369	    -11.53710168	     10.97646587	     -1.89704011	     -0.06123074	      0.52455176	     37.44210631	      8.53700748	     -3.24035773	    -23.35550467	     -9.42765251	      3.76662088	      3.08588611	     -2.82591991	    -14.02187804	      3.30584286	    -37.47948753	    -11.64641843	     41.79028453	     27.00802424	      6.31427306	     11.59374307	    -13.90597211
      3.14500000	     -7.77381262	    -12.04854356	     10.94224769	     -1.88849958	     -0.06163160	      0.52527095	     37.69656904	      9.20197092	     -3.25524591	    -24.12767115	     -9.30498891	      3.22571625	      2.61110337	     -1.78851320	    -14.74140438	      3.15664366	    -38.98212659	    -14.36877946	     41.59109826	     27.40567275	      6.69115785	     12.10100859	    -13.86371499
      3.15000000	     -7.95270061	    -12.54902168	     10.89019523	     -1.88001435	     -0.06196952	      0.52595330	     37.89720688	      9.86922758	     -3.28910248	    -24.87572025	     -8.96696196	      2.80587690	      2.09710669	     -0.74291763	    -15.42994206	      3.06507024	    -40.49036944	    -17.16153796	     41.23858003	     27.77231654	      7.02165520	     12.60660996	    -13.83713980
      3.15500000	     -8.12773755	    -13.05717457	     10.83510887	     -1.87150382	     -0.06226205	      0.52655645	     38.04696489	     10.54727628	     -3.32444016	    -25.55702586	     -8.48079513	      2.39910462	      1.63889072	      0.32976190	    -16.08106421	      3.10979039	    -42.01156374	    -19.89976409	     40.71655327	     27.90202789	      7.36396184	     13.12654065	    -13.77005452
